<svg id="Calque_1" data-name="Calque 1" xmlns="http://www.w3.org/2000/svg" viewBox="0 0 8.27 8.36"><defs><style>.cls-1{fill:#6e44ff;}.cls-2{fill:#fff;}</style></defs><path class="cls-1" d="M8.27,1.46V7l0,.19A1.47,1.47,0,0,1,7,8.37H1.35A1.87,1.87,0,0,1,1,8.3,1.5,1.5,0,0,1,0,7S0,7,0,7V1.45s0,0,0-.06,0-.08,0-.12A1.5,1.5,0,0,1,.87.16,1.44,1.44,0,0,1,1.49,0H6.86l.2,0A1.45,1.45,0,0,1,8.14.92a1.24,1.24,0,0,1,.13.5ZM3.33,5l0,.05c.08.26.17.51.26.77,0,0,0,.06.07.06h.71s0,0,0,0a.08.08,0,0,0,0-.05L3.67,3.67c-.17-.48-.34-1-.5-1.44,0,0,0,0-.06,0H2.25s0,0,0,0a1.15,1.15,0,0,1-.07.36L1.44,4.64c-.13.39-.26.79-.4,1.19,0,.07,0,.09.07.09H1.7c.06,0,.07,0,.09-.07L2,5.07s0,0,0-.05Zm2-.32H6.63A2.29,2.29,0,0,0,7,4.7s.06,0,.06-.06,0-.19,0-.28A1.51,1.51,0,0,0,7,3.76,1.06,1.06,0,0,0,6,3a2,2,0,0,0-.35,0,1,1,0,0,0-.39.12,1.28,1.28,0,0,0-.51.52,1.71,1.71,0,0,0-.21.73,2,2,0,0,0,.07.65,1.21,1.21,0,0,0,.7.81A1.31,1.31,0,0,0,5.89,6a2.57,2.57,0,0,0,.48,0,1.85,1.85,0,0,0,.42-.11.09.09,0,0,0,.06-.09V5.24s0,0,0,0l-.16,0a2.34,2.34,0,0,1-.45.07,1,1,0,0,1-.53-.09.57.57,0,0,1-.16-.11.64.64,0,0,1-.18-.39Z" transform="translate(0 -0.03)"/><path class="cls-2" d="M3.33,5H2.05s0,0,0,.05l-.24.78c0,.06,0,.07-.09.07H1.11C1,5.92,1,5.9,1,5.83c.14-.4.27-.8.4-1.19l.69-2a1.15,1.15,0,0,0,.07-.36s0,0,0,0h.86s0,0,.06,0c.16.48.33,1,.5,1.44L4.4,5.81a.08.08,0,0,1,0,.05s0,0,0,0H3.68c-.05,0-.06,0-.07-.06-.09-.26-.18-.51-.26-.77Zm-.21-.71h0c-.15-.48-.3-1-.43-1.44v0h0v0c0,.14-.06.28-.1.42-.11.33-.19.68-.31,1v0Z" transform="translate(0 -0.03)"/><path class="cls-2" d="M5.36,4.7v0a.64.64,0,0,0,.18.39.57.57,0,0,0,.16.11,1,1,0,0,0,.53.09,2.34,2.34,0,0,0,.45-.07l.16,0s0,0,0,0v.53a.09.09,0,0,1-.06.09A1.85,1.85,0,0,1,6.37,6a2.57,2.57,0,0,1-.48,0,1.31,1.31,0,0,1-.54-.11,1.21,1.21,0,0,1-.7-.81,2,2,0,0,1-.07-.65,1.71,1.71,0,0,1,.21-.73,1.28,1.28,0,0,1,.51-.52,1,1,0,0,1,.39-.12A2,2,0,0,1,6,3a1.06,1.06,0,0,1,1,.72,1.51,1.51,0,0,1,.09.6c0,.09,0,.18,0,.28S7,4.69,7,4.7a2.29,2.29,0,0,1-.37,0H5.36Zm0-.52h1s0,0,0-.06a.46.46,0,0,0-.31-.43.58.58,0,0,0-.19,0,.47.47,0,0,0-.42.26.48.48,0,0,0-.07.2A.64.64,0,0,0,5.35,4.18Z" transform="translate(0 -0.03)"/><path class="cls-1" d="M3.12,4.31H2.25v0c.12-.33.2-.68.31-1,0-.14.07-.28.1-.42v0h0v0c.13.48.28,1,.43,1.44Z" transform="translate(0 -0.03)"/><path class="cls-1" d="M5.35,4.18a.64.64,0,0,1,0-.07.48.48,0,0,1,.07-.2.47.47,0,0,1,.42-.26.58.58,0,0,1,.19,0,.46.46,0,0,1,.31.43s0,0,0,.06h-1Z" transform="translate(0 -0.03)"/></svg>