<svg id="Calque_1" data-name="Calque 1" xmlns="http://www.w3.org/2000/svg" viewBox="0 0 4.89 7.99"><defs><style>.cls-1{fill:#6e44ff;}</style></defs><path class="cls-1" d="M6.25,0a.9.9,0,0,1,.16,0,1.13,1.13,0,0,1,.91.9,1.48,1.48,0,0,1-.21,1.26,1.07,1.07,0,0,1-.69.45l-.18,0,.17,0a1.15,1.15,0,0,1,.83.65,1.43,1.43,0,0,1,.13.54,1.62,1.62,0,0,1-.06.58,1.14,1.14,0,0,1-.69.77A1.2,1.2,0,0,1,5,4.29l0-.18V6.65a1.47,1.47,0,0,1-.13.66,1.16,1.16,0,0,1-.72.62A1.2,1.2,0,0,1,2.52,7a1.4,1.4,0,0,1,0-.73,1.22,1.22,0,0,1,.94-.87l.13,0a1.21,1.21,0,0,1-.81-.43A1.37,1.37,0,0,1,2.49,4a1.34,1.34,0,0,1,.33-.91,1.21,1.21,0,0,1,.81-.43l-.2,0a1.22,1.22,0,0,1-.87-.85A1.36,1.36,0,0,1,3.18.14.9.9,0,0,1,3.6,0H6.25ZM4.93,3.86c0-.07,0-.16.05-.25a2.41,2.41,0,0,1,.08-.25,1.76,1.76,0,0,1,.14-.23A1,1,0,0,1,5.37,3a1.07,1.07,0,0,1,.22-.15.92.92,0,0,1,.23-.09l.22,0H4.93Z" transform="translate(-2.49 0)"/></svg>