<svg id="Calque_1" data-name="Calque 1" xmlns="http://www.w3.org/2000/svg" viewBox="0 0 8.38 8.38"><defs><style>.cls-1{fill:#6e44ff;}.cls-2{fill:#fff;}</style></defs><path class="cls-1" d="M4,0H4.4l.47.08A4.15,4.15,0,0,1,8.31,3.51c0,.16,0,.32.07.48V4.4c0,.15-.05.3-.07.45A4.14,4.14,0,0,1,5,8.28l-.63.1H4L3.5,8.31A4.16,4.16,0,0,1,.08,4.89c0-.17,0-.33-.08-.49V4l.08-.48A4.14,4.14,0,0,1,3.33.11ZM4,3.79c-.13.51-.24,1-.38,1.47a.89.89,0,0,1-.63.59c-.32.1-.45,0-.38-.35C2.69,5,2.83,4.41,3,3.86c.06-.25.12-.5.19-.77H1.79a.13.13,0,0,0-.11.08c-.06.19-.11.39-.17.61l.57,0c0,.06,0,.11,0,.15-.12.52-.26,1-.37,1.57a.74.74,0,0,0,.9.93,1,1,0,0,0,.66-.35L3.36,6l0,0-.09.41H4c.14,0,.19,0,.22-.17.14-.61.28-1.21.45-1.8A1.54,1.54,0,0,1,5,3.89a.48.48,0,0,1,.58-.09c.2.08.23.26.21.45a1.46,1.46,0,0,1,0,.22c-.1.37-.21.73-.28,1.1a.71.71,0,0,0,.68.9,1.05,1.05,0,0,0,1.08-1L6.9,5.35a2.33,2.33,0,0,1-.24.41c0,.06-.16.07-.25.11a1,1,0,0,1-.09-.26,4.05,4.05,0,0,1,.12-.47A9.43,9.43,0,0,0,6.66,4a.81.81,0,0,0-.45-.83.86.86,0,0,0-1,.09,6.48,6.48,0,0,0-.49.44l.11-.57H3.62s-.09.05-.11.09l-.16.6H4ZM3.33,2.14a.53.53,0,0,0-.54-.53.54.54,0,0,0-.52.52.53.53,0,0,0,.54.52A.51.51,0,0,0,3.33,2.14Z" transform="translate(0 0)"/><path class="cls-2" d="M4,3.79h-.6l.16-.6s.07-.09.11-.09H4.85l-.11.57a6.48,6.48,0,0,1,.49-.44.86.86,0,0,1,1-.09A.81.81,0,0,1,6.66,4a9.43,9.43,0,0,1-.22,1.18,4.05,4.05,0,0,0-.12.47,1,1,0,0,0,.09.26c.09,0,.2,0,.25-.11a2.33,2.33,0,0,0,.24-.41l.32.12a1.05,1.05,0,0,1-1.08,1,.71.71,0,0,1-.68-.9c.07-.37.18-.73.28-1.1a1.46,1.46,0,0,0,0-.22c0-.19,0-.37-.21-.45A.48.48,0,0,0,5,3.89a1.54,1.54,0,0,0-.31.56c-.17.59-.31,1.19-.45,1.8,0,.12-.08.18-.22.17H3.3L3.39,6l0,0-.11.12a1,1,0,0,1-.66.35.74.74,0,0,1-.9-.93c.11-.53.25-1,.37-1.57,0,0,0-.09,0-.15l-.57,0c.06-.22.11-.42.17-.61a.13.13,0,0,1,.11-.08H3.16c-.07.27-.13.52-.19.77C2.83,4.41,2.69,5,2.56,5.5c-.07.33.06.45.38.35a.89.89,0,0,0,.63-.59C3.71,4.79,3.82,4.3,4,3.79Z" transform="translate(0 0)"/><path class="cls-2" d="M3.33,2.14a.51.51,0,0,1-.52.51.53.53,0,0,1-.54-.52.54.54,0,0,1,.52-.52A.53.53,0,0,1,3.33,2.14Z" transform="translate(0 0)"/></svg>