<svg width="106" height="106" viewBox="0 0 106 106" fill="none" xmlns="http://www.w3.org/2000/svg">
    <path
        d="M67.5745 29.5918C68.3842 30.4015 68.7891 31.4321 68.7891 32.6835C68.7891 33.9349 68.3842 34.9654 67.5745 35.7751L50.3495 53.0001L67.5745 70.2251C68.3842 71.0349 68.7891 72.0654 68.7891 73.3168C68.7891 74.5682 68.3842 75.5987 67.5745 76.4085C66.7648 77.2182 65.7342 77.623 64.4828 77.623C63.2314 77.623 62.2009 77.2182 61.3911 76.4085L41.0745 56.0918C40.6328 55.6501 40.3192 55.1717 40.1337 54.6564C39.9512 54.1411 39.8599 53.589 39.8599 53.0001C39.8599 52.4112 39.9512 51.8592 40.1337 51.3439C40.3192 50.8286 40.6328 50.3501 41.0745 49.9085L61.3911 29.5918C62.2009 28.7821 63.2314 28.3772 64.4828 28.3772C65.7342 28.3772 66.7648 28.7821 67.5745 29.5918Z"
        fill="black" />
</svg>