<svg id="Calque_1" data-name="Calque 1" xmlns="http://www.w3.org/2000/svg" viewBox="0 0 8.34 8.16"><defs><style>.cls-1{fill:#6e44ff;}.cls-2{fill:#fdf8f7;}</style></defs><path class="cls-1" d="M.93,7V1.46a1,1,0,0,0,0-.14,1.45,1.45,0,0,1,.82-1A3.68,3.68,0,0,1,2.26.13H8l.08,0a1.43,1.43,0,0,1,1.12,1,1.87,1.87,0,0,1,.08.34V7l0,.13a1.46,1.46,0,0,1-1,1.1c-.11,0-.23.06-.34.09H2.26a.45.45,0,0,0-.11,0,1.44,1.44,0,0,1-1.08-.85C1,7.27,1,7.12.93,7ZM3.66,4.74c.3,0,.57,0,.83-.06a1.16,1.16,0,0,0,1-1.16A1.16,1.16,0,0,0,4.6,2.27a6.59,6.59,0,0,0-1.66,0V5.89h.34c.38,0,.38,0,.38-.37Zm4.06-1c0-.17,0-.36,0-.54S7.65,3,7.51,3.06s-.49.22-.74.33a.73.73,0,0,0,0-.16s-.06-.11-.09-.11H6V5.88h.77c0-.55,0-1.08,0-1.61a.31.31,0,0,1,.25-.35C7.26,3.86,7.47,3.82,7.72,3.77Z" transform="translate(-0.93 -0.13)"/><path class="cls-2" d="M3.66,4.74v.78c0,.37,0,.37-.38.37H2.94V2.23a6.59,6.59,0,0,1,1.66,0,1.16,1.16,0,0,1,.93,1.25,1.16,1.16,0,0,1-1,1.16C4.23,4.72,4,4.72,3.66,4.74Zm0-.64A5.3,5.3,0,0,0,4.42,4a.51.51,0,0,0,.37-.57.51.51,0,0,0-.43-.5c-.21,0-.44,0-.68-.06Z" transform="translate(-0.93 -0.13)"/><path class="cls-2" d="M7.72,3.77c-.25,0-.46.09-.67.15a.31.31,0,0,0-.25.35c0,.53,0,1.06,0,1.61H6V3.11h.6s.07.06.09.11a.73.73,0,0,1,0,.16c.25-.11.49-.23.74-.33s.22,0,.21.17S7.72,3.6,7.72,3.77Z" transform="translate(-0.93 -0.13)"/><path class="cls-1" d="M3.68,4.1V2.87c.24,0,.47,0,.68.06a.51.51,0,0,1,.43.5A.51.51,0,0,1,4.42,4,5.3,5.3,0,0,1,3.68,4.1Z" transform="translate(-0.93 -0.13)"/></svg>