<svg width="106" height="106" viewBox="0 0 106 106" fill="none" xmlns="http://www.w3.org/2000/svg">
    <path
        d="M38.4255 76.4082C37.6158 75.5985 37.2109 74.5679 37.2109 73.3165C37.2109 72.0651 37.6158 71.0346 38.4255 70.2249L55.6505 52.9999L38.4255 35.7749C37.6158 34.9651 37.2109 33.9346 37.2109 32.6832C37.2109 31.4318 37.6158 30.4013 38.4255 29.5915C39.2352 28.7818 40.2658 28.377 41.5172 28.377C42.7686 28.377 43.7991 28.7818 44.6089 29.5915L64.9255 49.9082C65.3672 50.3499 65.6808 50.8283 65.8663 51.3436C66.0488 51.8589 66.1401 52.411 66.1401 52.9999C66.1401 53.5888 66.0488 54.1408 65.8663 54.6561C65.6808 55.1714 65.3672 55.6499 64.9255 56.0915L44.6089 76.4082C43.7991 77.2179 42.7686 77.6228 41.5172 77.6228C40.2658 77.6228 39.2352 77.2179 38.4255 76.4082Z"
        fill="black" />
</svg>