<svg id="Calque_1" data-name="Calque 1" xmlns="http://www.w3.org/2000/svg" viewBox="0 0 8.27 8.36"><defs><style>.cls-1{fill:#6e44ff;}.cls-2{fill:#fff;}</style></defs><path class="cls-1" d="M8.27,1.46V7l0,.19A1.47,1.47,0,0,1,7,8.37H1.35A1.87,1.87,0,0,1,1,8.3,1.5,1.5,0,0,1,0,7S0,7,0,7V1.45s0,0,0-.06,0-.08,0-.12A1.5,1.5,0,0,1,.87.16,1.44,1.44,0,0,1,1.49,0H6.86l.2,0A1.45,1.45,0,0,1,8.14.92a1.24,1.24,0,0,1,.13.5ZM3.33,5l0,.05c.08.26.17.51.26.77,0,0,0,.06.07.06h.71s0,0,0,0a.08.08,0,0,0,0-.05L3.67,3.67c-.17-.48-.34-1-.5-1.44,0,0,0,0-.06,0H2.25s0,0,0,0a1.15,1.15,0,0,1-.07.36L1.44,4.64c-.13.39-.26.79-.4,1.19,0,.07,0,.09.07.09H1.7c.06,0,.07,0,.09-.07L2,5.07s0,0,0-.05Zm2-.32H6.63A2.29,2.29,0,0,0,7,4.7s.06,0,.06-.06,0-.19,0-.28A1.51,1.51,0,0,0,7,3.76,1.06,1.06,0,0,0,6,3a2,2,0,0,0-.35,0,1,1,0,0,0-.39.12,1.28,1.28,0,0,0-.51.52,1.71,1.71,0,0,0-.21.73,2,2,0,0,0,.07.65,1.21,1.21,0,0,0,.7.81A1.31,1.31,0,0,0,5.89,6a2.57,2.57,0,0,0,.48,0,1.85,1.85,0,0,0,.42-.11.09.09,0,0,0,.06-.09V5.24s0,0,0,0l-.16,0a2.34,2.34,0,0,1-.45.07,1,1,0,0,1-.53-.09.57.57,0,0,1-.16-.11.64.64,0,0,1-.18-.39Z" transform="translate(0 -0.03)"/><path class="cls-1" d="M3.12,4.31H2.25v0c.12-.33.2-.68.31-1,0-.14.07-.28.1-.42v0h0v0c.13.48.28,1,.43,1.44Z" transform="translate(0 -0.03)"/><path class="cls-1" d="M5.35,4.18a.64.64,0,0,1,0-.07.48.48,0,0,1,.07-.2.47.47,0,0,1,.42-.26.58.58,0,0,1,.19,0,.46.46,0,0,1,.31.43s0,0,0,.06h-1Z" transform="translate(0 -0.03)"/><rect class="cls-1" x="0.74" y="1.68" width="6.58" height="4.96"/><path class="cls-2" d="M6,3.2v-1c0-.05,0-.05.06-.05h.63s0,0,0,.05V5c0,.16,0,.32,0,.48s0,.16,0,.24,0,.06,0,.08A3.19,3.19,0,0,1,5.89,6a2.26,2.26,0,0,1-.52,0,1.39,1.39,0,0,1-.81-.4,1.22,1.22,0,0,1-.3-.64,1.68,1.68,0,0,1,0-.67,1.36,1.36,0,0,1,.92-1,1.76,1.76,0,0,1,.72-.08ZM6,4.58V3.87s0,0,0,0a.88.88,0,0,0-.51,0A.67.67,0,0,0,5,4.3a.94.94,0,0,0,0,.55.61.61,0,0,0,.3.4A1,1,0,0,0,6,5.33s0,0,0,0Z" transform="translate(0 -0.03)"/><path class="cls-2" d="M4.18,5.91H3.35a.13.13,0,0,1-.12-.08L2.58,4.63l0,0,0,0L1.87,5.88a.05.05,0,0,1-.05,0H1s0,0,0-.06l.72-1.18.3-.49a0,0,0,0,0,0-.05l-1-1.68v0s0,0,0,0h.75A.09.09,0,0,1,2,2.47c.12.25.25.49.39.73l.26.48,0,0,0,0,.63-1.22a.14.14,0,0,1,.14-.08h.65l0,0a0,0,0,0,1,0,0l-1,1.63a.06.06,0,0,0,0,.06L4.15,5.85Z" transform="translate(0 -0.03)"/><path class="cls-1" d="M6,4.58v.7s0,0,0,0a1,1,0,0,1-.62-.08.61.61,0,0,1-.3-.4A.94.94,0,0,1,5,4.3a.67.67,0,0,1,.4-.42.88.88,0,0,1,.51,0s0,0,0,0Z" transform="translate(0 -0.03)"/></svg>